<svg width="1242" height="1242" viewBox="0 0 1242 1242" fill="none" xmlns="http://www.w3.org/2000/svg">
<path fill-rule="evenodd" clip-rule="evenodd" d="M100.138 539.135C100.138 617.32 93.5893 709.666 170.677 749.531C195.194 762.209 233.959 778.202 246.163 738.52C265.647 675.168 218.171 536.954 316.471 367.888C339.345 328.555 357.272 310.451 387.716 279.102C423.024 242.744 489.483 208.472 540.154 195.28C635.516 170.448 747.34 191.223 822.46 248.852L849.737 270.682C863.619 281.641 887.004 307.458 898.577 321.977C942.971 377.669 978.508 457.835 990.056 528.691C1005.4 622.843 1001.96 693.883 966.995 780.156C946.148 831.599 902.298 890.703 863.235 931.624C845.462 950.234 839.322 945.95 839.322 981.801C839.322 989.157 843.393 1000.22 846.527 1004.64C868.336 1035.44 916.103 993.135 933.467 975.144C1035.29 869.588 1018.82 798.697 1066.12 762.61C1071.67 758.379 1076.09 755.997 1081.55 751.756C1103 735.091 1115.51 715.434 1125.16 689.773C1138.05 655.519 1145 583.266 1140.76 548.541C1133.84 491.932 1131.11 426.215 1085.04 390.512C1075.65 383.235 1062.03 377.922 1050.43 372.643C1034.88 365.567 1026.53 362.199 1014.75 350.525C988.838 324.839 972.675 290.61 949.98 262.219C941.106 251.112 933.135 244.053 924.636 233.077L897.598 207.451C862.588 179.592 850.069 166.452 802.916 142.677C710.934 96.2941 609.415 88.0052 510.007 116.414C472.136 127.233 440.712 142.842 409.083 162.343L374.048 186.895C368.283 191.328 362.807 195.088 357.391 200.053L326.145 228.479C308.935 246.252 287.917 272.54 272.912 293.053L247.219 327.168C237.527 337.883 227.504 346.529 215.667 355.289C203.608 364.206 191.873 371.012 179.942 379.126C118.592 420.858 100.138 452.521 100.138 539.144V539.135Z" fill="#00747B"/>
<path fill-rule="evenodd" clip-rule="evenodd" d="M736.957 754.25C752.533 764.938 744.894 742.401 738.694 732.917C717.438 732.917 718 740.185 694.93 733.318C689.659 731.748 678.707 727.891 674.27 727.743C664.605 727.42 662.356 732.036 662.356 741.808C655.245 741.808 646.678 740.159 641.884 736.11L639.44 733.283C634.168 727.917 632.056 729.819 624.119 727.638C619.01 726.233 616.199 724.506 612.026 722.246C614.479 712.849 638.503 690.304 571.669 704.011C563.613 705.668 559.678 707.091 552.031 708.836C538.652 711.881 539.47 708.399 530.468 706.253C494.88 730.666 507.007 740.691 493.764 748.648C484.771 754.058 486.21 750.515 477.941 759.109C472.227 765.051 457.98 781.428 456.472 790.467C455.033 799.105 459.794 800.004 455.749 812.795C453.534 819.792 450 824.923 448.135 831.781C443.341 849.379 458.031 856.821 464.554 866.236C497.75 914.18 501.182 895.57 533.492 898.772C547.441 900.159 548.548 893.458 562.182 891.434C571.209 890.09 572.12 892.053 573.849 892.926C583.608 897.838 569.778 891.155 585.525 904.068L597.907 921.745C605.708 931.604 595.48 926.613 602.633 939.788C608.816 951.174 628.054 964.454 626.487 995.349C624.928 1026.01 605.384 1013.18 627.1 1057.03C635.216 1073.42 634.713 1082.86 639.985 1097.16C642.48 1103.92 650.63 1116.33 652.631 1125.2C654.343 1132.8 648.066 1145.39 673.785 1141.15C703.353 1136.27 701.189 1137.79 726.124 1112.94C734.504 1104.59 731.856 1108.16 735.535 1095.91C738.617 1085.65 741.121 1088.51 748.488 1082.5C763.697 1070.11 738.907 1057.58 759.507 1045.81C777.996 1035.24 783.488 1037.69 786.844 1018.69C792.865 984.53 772.699 977.838 787.934 952.256C805.707 922.399 823.795 919.546 838.809 894.156C843.867 885.605 855.645 866.41 849.743 853.803C836.518 847.302 817.876 867.126 806.269 857.519C797.94 850.627 806.686 858.715 803.518 849.414C799.345 837.164 779.401 843.987 759.516 791.575C751.093 769.379 740.184 766.639 736.957 754.25Z" fill="#00747B"/>
</svg>
